<svg width="167" height="167" viewBox="0 0 167 167" fill="none" xmlns="http://www.w3.org/2000/svg">
<rect width="167" height="167" rx="23" fill="#FF7F00"/>
<rect x="17" y="19" width="28.5383" height="28.5383" rx="7" fill="white"/>
<rect x="87.1566" y="86.7784" width="28.5383" height="28.5383" rx="7" fill="#636363"/>
<rect x="52.6728" y="86.7784" width="28.5383" height="28.5383" rx="7" fill="white"/>
<rect x="18.1891" y="86.7784" width="28.5383" height="28.5383" rx="7" fill="#636363"/>
<rect x="85.9675" y="53.4837" width="28.5383" height="27.3492" rx="7" fill="white"/>
<rect x="51.4837" y="53.4837" width="28.5383" height="27.3492" rx="7" fill="#636363"/>
<rect x="17" y="53.4837" width="28.5383" height="27.3492" rx="7" fill="#636363"/>
<rect x="85.9675" y="19" width="28.5383" height="28.5383" rx="7" fill="white"/>
<rect x="121.64" y="86.7784" width="28.5383" height="28.5383" rx="7" fill="#636363"/>
<rect x="87.1566" y="121.262" width="28.5383" height="28.5383" rx="7" fill="white"/>
<rect x="52.6728" y="121.262" width="28.5383" height="28.5383" rx="7" fill="white"/>
<rect x="18.1891" y="121.262" width="28.5383" height="28.5383" rx="7" fill="white"/>
<rect x="121.64" y="121.262" width="28.5383" height="28.5383" rx="7" fill="white"/>
<rect x="120.451" y="53.4837" width="28.5383" height="27.3492" rx="7" fill="#636363"/>
<rect x="120.451" y="19" width="28.5383" height="28.5383" rx="7" fill="white"/>
<rect x="51.4837" y="19" width="28.5383" height="28.5383" rx="7" fill="white"/>
</svg>
